<mxfile host="Electron" modified="2023-08-22T12:38:13.960Z" agent="5.0 (Windows NT 10.0; Win64; x64) AppleWebKit/537.36 (KHTML, like Gecko) draw.io/20.3.0 Chrome/104.0.5112.114 Electron/20.1.3 Safari/537.36" etag="bV7cB8ngCUaGomfoZl1X" compressed="false" version="20.3.0" type="device">
  <diagram name="ND0030A" id="1CP9VX86ncTdAmcYDIcw">
    <mxGraphModel dx="563" dy="337" grid="1" gridSize="2" guides="1" tooltips="1" connect="1" arrows="1" fold="1" page="1" pageScale="1" pageWidth="1169" pageHeight="827" math="0" shadow="0">
      <root>
        <mxCell id="22vkG-h5v2N9dKBLQ-ZE-0" />
        <mxCell id="22vkG-h5v2N9dKBLQ-ZE-124" value="Connection" style="" parent="22vkG-h5v2N9dKBLQ-ZE-0" />
        <object label="Connection" PipingConnector="Y" LabelConnector="N" SignalConnector="N" Direction="0" id="OQSzNTRiM4NGO5r0WHCF-11">
          <mxCell style="vsdxID=1407;fillColor=none;gradientColor=none;shape=stencil(rVFbDsIgEDwNnyQU4glqvcfGblsilmZBS28vZGMsxg9j/JvZmX1kR5g2TLCg0CpE8hdcbR8nYY5CaztPSDZmJEwnTDt4wpH8be6ZL1CcBV39vUxI3KdKh1YbswPTEzuBzlmiVGmKau9zUKM+jlJJQrJBko8QrZ+rrQ5oRJnXyMHBWElhRVx25ebnw/5zVvPFWRm83jxY5zilvf4eSy5xpKZ7AA==);strokeColor=#00ff00;strokeWidth=1;points=[[0.5,0.5,0,0,0]];labelBackgroundColor=none;rounded=0;html=1;whiteSpace=wrap;aspect=fixed;noLabel=1;snapToPoint=1;container=0;fontSize=16;" vertex="1" parent="22vkG-h5v2N9dKBLQ-ZE-124">
            <mxGeometry x="570" y="330" width="12" height="12" as="geometry" />
          </mxCell>
        </object>
        <object label="Connection" PipingConnector="Y" LabelConnector="N" SignalConnector="N" Direction="180" id="OQSzNTRiM4NGO5r0WHCF-12">
          <mxCell style="vsdxID=1407;fillColor=none;gradientColor=none;shape=stencil(rVFbDsIgEDwNnyQU4glqvcfGblsilmZBS28vZGMsxg9j/JvZmX1kR5g2TLCg0CpE8hdcbR8nYY5CaztPSDZmJEwnTDt4wpH8be6ZL1CcBV39vUxI3KdKh1YbswPTEzuBzlmiVGmKau9zUKM+jlJJQrJBko8QrZ+rrQ5oRJnXyMHBWElhRVx25ebnw/5zVvPFWRm83jxY5zilvf4eSy5xpKZ7AA==);strokeColor=#00ff00;strokeWidth=1;points=[[0.5,0.5,0,0,0]];labelBackgroundColor=none;rounded=0;html=1;whiteSpace=wrap;aspect=fixed;noLabel=1;snapToPoint=1;container=0;fontSize=16;" vertex="1" parent="22vkG-h5v2N9dKBLQ-ZE-124">
            <mxGeometry x="410" y="330" width="12" height="12" as="geometry" />
          </mxCell>
        </object>
        <mxCell id="22vkG-h5v2N9dKBLQ-ZE-134" value="Option1" style="" parent="22vkG-h5v2N9dKBLQ-ZE-0" />
        <mxCell id="OQSzNTRiM4NGO5r0WHCF-13" value="" style="ellipse;whiteSpace=wrap;html=1;aspect=fixed;fillColor=#000000;" vertex="1" parent="22vkG-h5v2N9dKBLQ-ZE-134">
          <mxGeometry x="448" y="288" width="96" height="96" as="geometry" />
        </mxCell>
        <mxCell id="OQSzNTRiM4NGO5r0WHCF-14" value="" style="rounded=0;whiteSpace=wrap;html=1;fillColor=none;" vertex="1" parent="22vkG-h5v2N9dKBLQ-ZE-134">
          <mxGeometry x="432" y="288" width="16" height="96" as="geometry" />
        </mxCell>
        <mxCell id="OQSzNTRiM4NGO5r0WHCF-16" value="" style="endArrow=none;html=1;rounded=0;startArrow=none;" edge="1" parent="22vkG-h5v2N9dKBLQ-ZE-134">
          <mxGeometry width="50" height="50" relative="1" as="geometry">
            <mxPoint x="576.1428571428571" y="336.28571428571433" as="sourcePoint" />
            <mxPoint x="576" y="296" as="targetPoint" />
          </mxGeometry>
        </mxCell>
        <mxCell id="OQSzNTRiM4NGO5r0WHCF-17" value="" style="endArrow=none;html=1;rounded=0;" edge="1" parent="22vkG-h5v2N9dKBLQ-ZE-134">
          <mxGeometry width="50" height="50" relative="1" as="geometry">
            <mxPoint x="576" y="374" as="sourcePoint" />
            <mxPoint x="576.1428571428571" y="336.28571428571433" as="targetPoint" />
          </mxGeometry>
        </mxCell>
        <mxCell id="OQSzNTRiM4NGO5r0WHCF-18" value="" style="endArrow=none;html=1;rounded=0;startArrow=none;" edge="1" parent="22vkG-h5v2N9dKBLQ-ZE-134">
          <mxGeometry width="50" height="50" relative="1" as="geometry">
            <mxPoint x="416.1428571428571" y="336.28571428571433" as="sourcePoint" />
            <mxPoint x="416" y="296" as="targetPoint" />
          </mxGeometry>
        </mxCell>
        <mxCell id="OQSzNTRiM4NGO5r0WHCF-19" value="" style="endArrow=none;html=1;rounded=0;" edge="1" parent="22vkG-h5v2N9dKBLQ-ZE-134">
          <mxGeometry width="50" height="50" relative="1" as="geometry">
            <mxPoint x="416" y="374" as="sourcePoint" />
            <mxPoint x="416.1428571428571" y="336.28571428571433" as="targetPoint" />
          </mxGeometry>
        </mxCell>
        <mxCell id="OQSzNTRiM4NGO5r0WHCF-22" value="" style="rounded=0;whiteSpace=wrap;html=1;fillColor=none;" vertex="1" parent="22vkG-h5v2N9dKBLQ-ZE-134">
          <mxGeometry x="544" y="288" width="16" height="96" as="geometry" />
        </mxCell>
        <mxCell id="22vkG-h5v2N9dKBLQ-ZE-135" value="Label" style="" parent="22vkG-h5v2N9dKBLQ-ZE-0" />
        <object label="%LabelLines%&amp;nbsp; &amp;nbsp; &amp;nbsp; &amp;nbsp; &amp;nbsp; &amp;nbsp;%LabelIndex%" placeholders="1" LabelLines="2" LabelIndex="A" id="OQSzNTRiM4NGO5r0WHCF-10">
          <mxCell style="rounded=0;whiteSpace=wrap;html=1;fillColor=none;strokeColor=#FF0000;fontColor=#FF0000;fontSize=10;align=left;" vertex="1" parent="22vkG-h5v2N9dKBLQ-ZE-135">
            <mxGeometry x="456" y="400" width="80" height="16" as="geometry" />
          </mxCell>
        </object>
        <mxCell id="22vkG-h5v2N9dKBLQ-ZE-136" value="Origo" style="" parent="22vkG-h5v2N9dKBLQ-ZE-0" />
        <object label="origo" id="OQSzNTRiM4NGO5r0WHCF-5">
          <mxCell style="vsdxID=1407;fillColor=none;gradientColor=none;shape=stencil(rVFbDsIgEDwNnyQU4glqvcfGblsilmZBS28vZGMsxg9j/JvZmX1kR5g2TLCg0CpE8hdcbR8nYY5CaztPSDZmJEwnTDt4wpH8be6ZL1CcBV39vUxI3KdKh1YbswPTEzuBzlmiVGmKau9zUKM+jlJJQrJBko8QrZ+rrQ5oRJnXyMHBWElhRVx25ebnw/5zVvPFWRm83jxY5zilvf4eSy5xpKZ7AA==);strokeColor=#ff0000;strokeWidth=1;points=[[0.5,0.5,0,0,0]];labelBackgroundColor=none;rounded=0;html=1;whiteSpace=wrap;aspect=fixed;noLabel=1;snapToPoint=1;" vertex="1" parent="22vkG-h5v2N9dKBLQ-ZE-136">
            <mxGeometry x="492" y="332" width="8" height="8" as="geometry" />
          </mxCell>
        </object>
        <object label="Symbol" Width="10" Height="6" UoM="mm" id="22vkG-h5v2N9dKBLQ-ZE-138">
          <mxCell style="" parent="22vkG-h5v2N9dKBLQ-ZE-0" visible="0" />
        </object>
        <mxCell id="OQSzNTRiM4NGO5r0WHCF-0" value="" style="ellipse;whiteSpace=wrap;html=1;aspect=fixed;fillColor=none;" vertex="1" parent="22vkG-h5v2N9dKBLQ-ZE-138">
          <mxGeometry x="448" y="288" width="96" height="96" as="geometry" />
        </mxCell>
        <mxCell id="OQSzNTRiM4NGO5r0WHCF-1" value="" style="rounded=0;whiteSpace=wrap;html=1;fillColor=none;" vertex="1" parent="22vkG-h5v2N9dKBLQ-ZE-138">
          <mxGeometry x="432" y="288" width="16" height="96" as="geometry" />
        </mxCell>
        <mxCell id="OQSzNTRiM4NGO5r0WHCF-3" value="" style="endArrow=none;html=1;rounded=0;startArrow=none;" edge="1" parent="22vkG-h5v2N9dKBLQ-ZE-138">
          <mxGeometry width="50" height="50" relative="1" as="geometry">
            <mxPoint x="576.1428571428571" y="336.28571428571433" as="sourcePoint" />
            <mxPoint x="576" y="296" as="targetPoint" />
          </mxGeometry>
        </mxCell>
        <mxCell id="OQSzNTRiM4NGO5r0WHCF-7" value="" style="endArrow=none;html=1;rounded=0;" edge="1" parent="22vkG-h5v2N9dKBLQ-ZE-138">
          <mxGeometry width="50" height="50" relative="1" as="geometry">
            <mxPoint x="576" y="374" as="sourcePoint" />
            <mxPoint x="576.1428571428571" y="336.28571428571433" as="targetPoint" />
          </mxGeometry>
        </mxCell>
        <mxCell id="OQSzNTRiM4NGO5r0WHCF-2" value="" style="endArrow=none;html=1;rounded=0;startArrow=none;" edge="1" parent="22vkG-h5v2N9dKBLQ-ZE-138">
          <mxGeometry width="50" height="50" relative="1" as="geometry">
            <mxPoint x="416.1428571428571" y="336.28571428571433" as="sourcePoint" />
            <mxPoint x="416" y="296" as="targetPoint" />
          </mxGeometry>
        </mxCell>
        <mxCell id="OQSzNTRiM4NGO5r0WHCF-9" value="" style="endArrow=none;html=1;rounded=0;" edge="1" parent="22vkG-h5v2N9dKBLQ-ZE-138">
          <mxGeometry width="50" height="50" relative="1" as="geometry">
            <mxPoint x="416" y="374" as="sourcePoint" />
            <mxPoint x="416.1428571428571" y="336.28571428571433" as="targetPoint" />
          </mxGeometry>
        </mxCell>
        <mxCell id="OQSzNTRiM4NGO5r0WHCF-20" value="" style="rounded=0;whiteSpace=wrap;html=1;fillColor=none;" vertex="1" parent="22vkG-h5v2N9dKBLQ-ZE-138">
          <mxGeometry x="544" y="288" width="16" height="96" as="geometry" />
        </mxCell>
      </root>
    </mxGraphModel>
  </diagram>
</mxfile>
